<svg width="13" height="12" viewBox="0 0 13 12" fill="none" xmlns="http://www.w3.org/2000/svg">
<path d="M6.70819 0.263019L8.11794 3.47842C8.22582 3.72456 8.45938 3.89318 8.72751 3.91727L12.1618 4.22519C12.5504 4.28175 12.7054 4.7583 12.4237 5.03271L9.83667 7.20599C9.62719 7.38195 9.53188 7.65845 9.58949 7.92553L10.3415 11.4457C10.4075 11.8322 10.0021 12.1276 9.65443 11.9443L6.65687 10.1889C6.42645 10.0538 6.14157 10.0538 5.91115 10.1889L2.9136 11.9432C2.56692 12.1255 2.16054 11.8311 2.22653 11.4447L2.97853 7.92448C3.03509 7.6574 2.94083 7.3809 2.73135 7.20494L0.14332 5.03376C-0.137374 4.7604 0.017636 4.2828 0.40516 4.22624L3.83946 3.91832C4.10759 3.89423 4.34115 3.7256 4.44903 3.47947L5.85878 0.264067C6.03369 -0.0878475 6.53433 -0.0878474 6.70819 0.263019Z" fill="#FDD835"/>
<path d="M6.60612 3.67112L6.36732 1.30198C6.35789 1.17002 6.33066 0.943787 6.54223 0.943787C6.70981 0.943787 6.80093 1.29256 6.80093 1.29256L7.51732 3.19457C7.78754 3.9183 7.67652 4.16652 7.41573 4.31315C7.11619 4.48073 6.6742 4.34981 6.60612 3.67112Z" fill="#FFFF8D"/>
<path d="M9.56031 6.9954L11.6152 5.39189C11.7168 5.30705 11.9001 5.17194 11.7535 5.01798C11.6372 4.89648 11.323 5.07139 11.323 5.07139L9.5247 5.77417C8.98845 5.95956 8.63234 6.23397 8.60092 6.5796C8.56008 7.04044 8.97378 7.39549 9.56031 6.9954Z" fill="#F4B400"/>
</svg>
