<svg width="41" height="37" viewBox="0 0 41 37" fill="none" xmlns="http://www.w3.org/2000/svg">
<path d="M40.4722 0.0473633L1.24029 16.4529C0.826909 16.6256 0.551133 17.0224 0.53316 17.4699C0.515187 17.9177 0.75802 18.3352 1.15622 18.5407L11.0769 23.6608L12.3238 34.5983C12.4003 35.2669 12.869 35.8129 13.518 35.9901C13.6582 36.0278 13.8028 36.0474 13.948 36.0474C14.4582 36.0474 14.9461 35.8039 15.2534 35.3967L20.452 28.4997L32.6728 34.8066C32.9977 34.974 33.3829 34.9778 33.7108 34.816C34.0387 34.6545 34.2706 34.3471 34.3357 33.9873L40.4722 0.0473633ZM12.078 21.4372L4.71685 17.6381L30.9955 6.64922L12.078 21.4372ZM14.5159 32.3298L13.4998 23.4162L32.3293 8.69694L14.5159 32.3298ZM21.9389 26.5267L36.7668 6.85491L32.248 31.8477L21.9389 26.5267Z" fill="#B91C1C"/>
</svg>
