<svg width="40" height="26" viewBox="0 0 40 26" fill="none" xmlns="http://www.w3.org/2000/svg">
<path d="M27.9992 10.5288V23.5001C27.9992 24.8808 26.88 26 25.4993 26H14.4999C13.1192 26 12 24.8808 12 23.5001V8.50088C12 7.12023 13.1192 6.001 14.4999 6.001H23.4714C23.6042 5.99258 23.7424 6.03684 23.853 6.14744L27.8528 10.1472C27.9634 10.2578 28.0076 10.396 27.9992 10.5288ZM22.9994 7.00095H14.4999C13.6715 7.00095 12.9999 7.67249 12.9999 8.50088V23.5001C12.9999 24.3285 13.6715 25 14.4999 25H25.4993C26.3277 25 26.9992 24.3285 26.9992 23.5001V11.0008H23.4994C23.2233 11.0008 22.9994 10.7769 22.9994 10.5008V7.00095ZM23.9994 7.70802V10.0008H26.2922L23.9994 7.70802ZM16.4998 13.9996C16.2236 13.9996 15.9998 13.7758 15.9998 13.4996C15.9998 13.2235 16.2236 12.9996 16.4998 12.9996H23.4994C23.7756 12.9996 23.9994 13.2235 23.9994 13.4996C23.9994 13.7758 23.7756 13.9996 23.4994 13.9996H16.4998ZM16.4998 16.9994C16.2236 16.9994 15.9998 16.7756 15.9998 16.4995C15.9998 16.2233 16.2236 15.9995 16.4998 15.9995H23.4994C23.7756 15.9995 23.9994 16.2233 23.9994 16.4995C23.9994 16.7756 23.7756 16.9994 23.4994 16.9994H16.4998ZM16.4998 19.9993C16.2236 19.9993 15.9998 19.7755 15.9998 19.4993C15.9998 19.2232 16.2236 18.9993 16.4998 18.9993H21.4995C21.7757 18.9993 21.9995 19.2232 21.9995 19.4993C21.9995 19.7755 21.7757 19.9993 21.4995 19.9993H16.4998Z" fill="#392D82"/>
<path d="M39.5995 16.7173V24.5001C39.5995 25.3285 38.928 26 38.0996 26H31.4999C30.6715 26 30 25.3285 30 24.5001V15.5005C30 14.6721 30.6715 14.0006 31.4999 14.0006H36.8829C36.9625 13.9955 37.0454 14.0221 37.1118 14.0885L39.5117 16.4883C39.578 16.5547 39.6046 16.6376 39.5995 16.7173ZM36.5997 14.6006H31.4999C31.0029 14.6006 30.6 15.0035 30.6 15.5005V24.5001C30.6 24.9971 31.0029 25.4 31.4999 25.4H38.0996C38.5966 25.4 38.9995 24.9971 38.9995 24.5001V17.0005H36.8997C36.734 17.0005 36.5997 16.8661 36.5997 16.7005V14.6006ZM37.1996 15.0248V16.4005H38.5753L37.1996 15.0248ZM32.6999 18.7998C32.5342 18.7998 32.3999 18.6655 32.3999 18.4998C32.3999 18.3341 32.5342 18.1998 32.6999 18.1998H36.8997C37.0653 18.1998 37.1996 18.3341 37.1996 18.4998C37.1996 18.6655 37.0653 18.7998 36.8997 18.7998H32.6999ZM32.6999 20.5997C32.5342 20.5997 32.3999 20.4654 32.3999 20.2997C32.3999 20.134 32.5342 19.9997 32.6999 19.9997H36.8997C37.0653 19.9997 37.1996 20.134 37.1996 20.2997C37.1996 20.4654 37.0653 20.5997 36.8997 20.5997H32.6999ZM32.6999 22.3996C32.5342 22.3996 32.3999 22.2653 32.3999 22.0996C32.3999 21.9339 32.5342 21.7996 32.6999 21.7996H35.6997C35.8654 21.7996 35.9997 21.9339 35.9997 22.0996C35.9997 22.2653 35.8654 22.3996 35.6997 22.3996H32.6999Z" fill="#392D82"/>
<path d="M9.59952 16.7173V24.5001C9.59952 25.3285 8.92798 26 8.09959 26H1.49992C0.671539 26 0 25.3285 0 24.5001V15.5005C0 14.6721 0.671539 14.0006 1.49992 14.0006H6.88287C6.96251 13.9955 7.04541 14.0221 7.11178 14.0885L9.51166 16.4883C9.57802 16.5547 9.60457 16.6376 9.59952 16.7173ZM6.59967 14.6006H1.49992C1.00289 14.6006 0.59997 15.0035 0.59997 15.5005V24.5001C0.59997 24.9971 1.00289 25.4 1.49992 25.4H8.09959C8.59663 25.4 8.99955 24.9971 8.99955 24.5001V17.0005H6.89965C6.73398 17.0005 6.59967 16.8661 6.59967 16.7005V14.6006ZM7.19964 15.0248V16.4005H8.57531L7.19964 15.0248ZM2.69986 18.7998C2.53419 18.7998 2.39988 18.6655 2.39988 18.4998C2.39988 18.3341 2.53419 18.1998 2.69986 18.1998H6.89965C7.06533 18.1998 7.19964 18.3341 7.19964 18.4998C7.19964 18.6655 7.06533 18.7998 6.89965 18.7998H2.69986ZM2.69986 20.5997C2.53419 20.5997 2.39988 20.4654 2.39988 20.2997C2.39988 20.134 2.53419 19.9997 2.69986 19.9997H6.89965C7.06533 19.9997 7.19964 20.134 7.19964 20.2997C7.19964 20.4654 7.06533 20.5997 6.89965 20.5997H2.69986ZM2.69986 22.3996C2.53419 22.3996 2.39988 22.2653 2.39988 22.0996C2.39988 21.9339 2.53419 21.7996 2.69986 21.7996H5.69971C5.86539 21.7996 5.9997 21.9339 5.9997 22.0996C5.9997 22.2653 5.86539 22.3996 5.69971 22.3996H2.69986Z" fill="#392D82"/>
<path d="M13.5804 0.219183L14.7552 2.89869C14.8451 3.1038 15.0397 3.24432 15.2632 3.26439L18.1251 3.521C18.4489 3.56813 18.5781 3.96525 18.3433 4.19393L16.1875 6.00499C16.0129 6.15162 15.9335 6.38204 15.9815 6.60461L16.6081 9.5381C16.6631 9.86016 16.3254 10.1063 16.0356 9.95355L13.5376 8.49074C13.3456 8.37814 13.1082 8.37814 12.9162 8.49074L10.4182 9.95268C10.1293 10.1045 9.79069 9.85929 9.84567 9.53722L10.4723 6.60373C10.5195 6.38117 10.4409 6.15075 10.2664 6.00412L8.10967 4.1948C7.87576 3.967 8.00493 3.569 8.32787 3.52187L11.1898 3.26526C11.4132 3.24519 11.6079 3.10467 11.6978 2.89956L12.8726 0.220056C13.0183 -0.0732062 13.4355 -0.0732062 13.5804 0.219183Z" fill="#FDD835"/>
<path d="M13.4952 3.05925L13.2962 1.08497C13.2883 0.974994 13.2656 0.786469 13.4419 0.786469C13.5816 0.786469 13.6575 1.07711 13.6575 1.07711L14.2545 2.66212C14.4797 3.26523 14.3872 3.47208 14.1698 3.59428C13.9202 3.73392 13.5519 3.62482 13.4952 3.05925Z" fill="#FFFF8D"/>
<path d="M15.9573 5.82948L17.6698 4.49322C17.7544 4.42252 17.9072 4.30993 17.785 4.18163C17.6881 4.08038 17.4262 4.22614 17.4262 4.22614L15.9276 4.81179C15.4808 4.96628 15.184 5.19495 15.1578 5.48298C15.1238 5.86701 15.4686 6.16289 15.9573 5.82948Z" fill="#F4B400"/>
</svg>
