<svg width="94" height="63" viewBox="0 0 94 63" fill="none" xmlns="http://www.w3.org/2000/svg">
<path d="M35.0617 45.3681L18.9164 50.8016C18.7463 50.8588 18.6247 51.0095 18.6047 51.1878C18.5848 51.3662 18.6698 51.54 18.8231 51.6335L22.6408 53.963L22.8263 58.3691C22.8377 58.6384 23.0094 58.87 23.2636 58.9593C23.3186 58.9784 23.3758 58.9904 23.4338 58.9945C23.6377 59.0091 23.8396 58.9258 23.974 58.7719L26.2485 56.1646L30.9513 59.0342C31.0764 59.1103 31.2302 59.1229 31.3658 59.0676C31.5015 59.0124 31.6029 58.8962 31.6392 58.7543L35.0617 45.3681ZM23.1044 53.1031L20.2716 51.3746L31.0863 47.7351L23.1044 53.1031ZM23.767 57.5253L23.6159 53.9346L31.5607 48.5915L23.767 57.5253ZM26.8991 55.4188L33.3865 47.9823L30.8662 57.8397L26.8991 55.4188Z" fill="#501B88"/>
<path d="M86.262 48.2046L73.4976 55.9021C73.3631 55.9832 73.2878 56.1349 73.3045 56.291C73.3212 56.4472 73.4267 56.5796 73.5754 56.6304L77.2777 57.898L78.27 61.6269C78.3308 61.8548 78.5213 62.0202 78.7554 62.0484C78.806 62.0543 78.8571 62.0536 78.9074 62.0462C79.0844 62.0201 79.2411 61.9107 79.3268 61.7538L80.7764 59.0959L85.337 60.6573C85.4583 60.6987 85.5921 60.6802 85.6975 60.6074C85.8029 60.5346 85.8676 60.4161 85.8717 60.288L86.262 48.2046ZM77.5109 57.0756L74.7638 56.1351L83.3138 50.9791L77.5109 57.0756ZM78.914 60.728L78.1053 57.6891L83.8811 51.6209L78.914 60.728ZM81.191 58.3356L85.3256 50.7549L85.0383 59.6529L81.191 58.3356Z" fill="#064E3B"/>
<path d="M92.547 26.0173L81.5269 32.482C81.4108 32.5501 81.3446 32.6793 81.3573 32.8133C81.37 32.9473 81.4591 33.0619 81.5859 33.107L84.7459 34.2319L85.5577 37.4382C85.6074 37.6342 85.769 37.7779 85.9693 37.8045C86.0126 37.81 86.0564 37.8101 86.0997 37.8042C86.2516 37.7837 86.387 37.6915 86.4621 37.5579L87.7322 35.295L91.6248 36.6806C91.7283 36.7173 91.8431 36.7029 91.9342 36.6416C92.0254 36.5803 92.082 36.4794 92.0869 36.3697L92.547 26.0173ZM84.9544 33.5295L82.6097 32.6949L89.9913 28.3646L84.9544 33.5295ZM86.119 36.6745L85.4575 34.0615L90.4709 28.9206L86.119 36.6745ZM88.0954 34.6477L91.7179 28.1934L91.3791 35.8167L88.0954 34.6477Z" fill="#501B88"/>
<path d="M40.6117 5.37638L32.3208 3.42432C32.2335 3.40373 32.1421 3.43566 32.0866 3.50612C32.031 3.57661 32.0213 3.67288 32.0617 3.75302L33.0685 5.74969L31.9848 7.66998C31.9186 7.78739 31.9304 7.93104 32.0149 8.03607C32.0332 8.05867 32.0543 8.07884 32.0778 8.09591C32.1606 8.1559 32.2683 8.17378 32.366 8.14388L34.0199 7.63661L35.2602 10.0962C35.2933 10.1615 35.3553 10.2074 35.4275 10.2197C35.4996 10.2321 35.5734 10.2095 35.6262 10.1588L40.6117 5.37638ZM33.4923 5.50678L32.7452 4.02526L38.2987 5.3328L33.4923 5.50678ZM32.607 7.55982L33.4902 5.99488L38.2742 5.82168L32.607 7.55982ZM34.493 7.49148L39.2104 6.04469L35.5392 9.56639L34.493 7.49148Z" fill="#7F1D1D"/>
</svg>
