<svg width="30" height="30" viewBox="0 0 30 30" fill="none" xmlns="http://www.w3.org/2000/svg">
<path d="M15 2.5C8.09625 2.5 2.5 8.09625 2.5 15C2.5 21.9037 8.09625 27.5 15 27.5C21.9037 27.5 27.5 21.9037 27.5 15C27.5 8.09625 21.9037 2.5 15 2.5Z" fill="url(#paint0_linear_1_269)"/>
<path d="M16.692 18.3132H19.927L20.4351 15.0269H16.692V13.2307C16.692 11.8657 17.1382 10.6551 18.4151 10.6551H20.467V7.78757C20.1063 7.73882 19.3438 7.63257 17.9032 7.63257C14.8945 7.63257 13.1307 9.22132 13.1307 12.8413V15.0276H10.0376V18.3138H13.1301V27.3463C13.7426 27.4376 14.3632 27.5001 15.0001 27.5001C15.5757 27.5001 16.1376 27.4476 16.692 27.3726V18.3132Z" fill="white"/>
<defs>
<linearGradient id="paint0_linear_1_269" x1="6.24562" y1="6.24562" x2="25.3844" y2="25.3844" gradientUnits="userSpaceOnUse">
<stop stop-color="#2AA4F4"/>
<stop offset="1" stop-color="#007AD9"/>
</linearGradient>
</defs>
</svg>
