<svg width="30" height="30" viewBox="0 0 30 30" fill="none" xmlns="http://www.w3.org/2000/svg">
<path d="M6.5999 2.3999C4.2803 2.3999 2.3999 4.2803 2.3999 6.5999V23.3999C2.3999 25.7195 4.2803 27.5999 6.5999 27.5999H23.3999C25.7195 27.5999 27.5999 25.7195 27.5999 23.3999V6.5999C27.5999 4.2803 25.7195 2.3999 23.3999 2.3999H6.5999ZM7.85147 7.7999H12.614L15.996 12.6058L20.0999 7.7999H21.5999L16.6733 13.5679L22.7483 22.1999H17.987L14.0624 16.6241L9.2999 22.1999H7.7999L13.3851 15.662L7.85147 7.7999ZM10.1483 8.9999L18.6128 20.9999H20.4515L11.987 8.9999H10.1483Z" fill="#392D82"/>
</svg>
